<?xml version="1.0"?>
<svg xmlns="http://www.w3.org/2000/svg" id="Icons" viewBox="0 0 74 74" width="512" height="512"><path d="M28.772,49.865A3.534,3.534,0,0,1,27.4,49.6c-1.935-.8-2.636-3.034-3.313-5.192a9.382,9.382,0,0,0-1.575-3.489,9.382,9.382,0,0,0-3.489-1.576c-2.158-.678-4.391-1.378-5.192-3.313-.771-1.856.279-3.886,1.294-5.848a9.658,9.658,0,0,0,1.388-3.75,9.66,9.66,0,0,0-1.388-3.75c-1.015-1.962-2.064-3.991-1.294-5.848.8-1.934,3.034-2.635,5.192-3.312a9.382,9.382,0,0,0,3.489-1.576,9.382,9.382,0,0,0,1.575-3.489C24.767,6.3,25.468,4.065,27.4,3.264c1.86-.77,3.886.28,5.848,1.294A9.666,9.666,0,0,0,37,5.945a9.674,9.674,0,0,0,3.749-1.387C42.71,3.543,44.738,2.494,46.6,3.264c1.935.8,2.636,3.034,3.313,5.192a9.382,9.382,0,0,0,1.575,3.489,9.382,9.382,0,0,0,3.489,1.576c2.158.677,4.391,1.378,5.192,3.313.771,1.856-.279,3.886-1.294,5.848a9.67,9.67,0,0,0-1.387,3.75,9.67,9.67,0,0,0,1.387,3.75c1.015,1.962,2.064,3.992,1.294,5.849-.8,1.934-3.034,2.635-5.192,3.312a9.382,9.382,0,0,0-3.489,1.576,9.369,9.369,0,0,0-1.575,3.49c-.678,2.158-1.379,4.39-3.312,5.192-1.854.768-3.886-.28-5.849-1.295A9.674,9.674,0,0,0,37,46.917,9.666,9.666,0,0,0,33.25,48.3,10.561,10.561,0,0,1,28.772,49.865ZM28.774,5a1.57,1.57,0,0,0-.606.11C27.1,5.556,26.537,7.335,26,9.055a10.523,10.523,0,0,1-2.069,4.3,10.529,10.529,0,0,1-4.3,2.07c-1.721.54-3.5,1.1-3.943,2.17-.414,1,.418,2.607,1.223,4.163a10.88,10.88,0,0,1,1.611,4.669A10.887,10.887,0,0,1,16.9,31.1c-.806,1.556-1.638,3.165-1.224,4.163.444,1.072,2.223,1.631,3.943,2.171a10.529,10.529,0,0,1,4.3,2.07A10.523,10.523,0,0,1,26,43.808c.54,1.72,1.1,3.5,2.171,3.944,1,.413,2.605-.418,4.163-1.223A10.879,10.879,0,0,1,37,44.917a10.881,10.881,0,0,1,4.668,1.61c1.557.805,3.166,1.637,4.164,1.224,1.071-.444,1.63-2.223,2.17-3.944a10.528,10.528,0,0,1,2.069-4.3,10.529,10.529,0,0,1,4.3-2.07c1.72-.54,3.5-1.1,3.943-2.17.414-1-.418-2.607-1.223-4.164a10.874,10.874,0,0,1-1.61-4.668,10.874,10.874,0,0,1,1.61-4.668c.8-1.556,1.637-3.165,1.223-4.163-.444-1.072-2.224-1.63-3.943-2.17a10.529,10.529,0,0,1-4.3-2.07A10.523,10.523,0,0,1,48,9.055c-.54-1.72-1.1-3.5-2.171-3.944-1-.413-2.607.418-4.163,1.223A10.881,10.881,0,0,1,37,7.945a10.885,10.885,0,0,1-4.669-1.61A9.366,9.366,0,0,0,28.774,5Z"/><path d="M37,38.908A12.477,12.477,0,1,1,49.477,26.431,12.492,12.492,0,0,1,37,38.908Zm0-22.954A10.477,10.477,0,1,0,47.477,26.431,10.489,10.489,0,0,0,37,15.955Z"/><path d="M52.42,71a1,1,0,0,1-.862-.494l-14-23.838a1,1,0,1,1,1.725-1.013l13,22.131,2.884-6.735a.982.982,0,0,1,1.054-.6l7.184.975L50.838,40.042a1,1,0,1,1,1.725-1.013l13.6,23.162a1,1,0,0,1-1,1.5L56.7,62.538l-3.363,7.855a1,1,0,0,1-.855.6Z"/><path d="M21.58,71l-.063,0a1,1,0,0,1-.855-.6L17.3,62.538,8.83,63.688a1,1,0,0,1-1-1.5l13.6-23.162a1,1,0,1,1,1.725,1.013L10.6,61.429l7.184-.975a.989.989,0,0,1,1.054.6l2.884,6.735,13-22.131a1,1,0,1,1,1.725,1.013l-14,23.838A1,1,0,0,1,21.58,71Z"/></svg>
